<svg xmlns="http://www.w3.org/2000/svg" version="1.1" xmlns:xlink="http://www.w3.org/1999/xlink" width="16" height="16"><svg width="16" height="16" viewBox="0 0 16 16" fill="none" xmlns="http://www.w3.org/2000/svg">
<rect width="16" height="16" fill="white"></rect>
<path fill-rule="evenodd" clip-rule="evenodd" d="M12.7462 9.49721H10.7778C10.5318 9.49721 10.2992 9.59475 10.1262 9.76816L8.13885 11.7596C8.08748 11.8111 8.00366 11.8111 7.95228 11.7596L4.29125 8.09101C4.23988 8.03953 4.23988 7.95554 4.29125 7.90406L7.95228 4.23548C8.00366 4.184 8.08748 4.184 8.13885 4.23548L10.1262 6.22692C10.2992 6.40032 10.5345 6.49786 10.7778 6.49786H12.7462C13.0301 6.49786 13.1707 6.15376 12.9707 5.95327L10.2533 3.23028C9.85851 2.8347 9.21769 2.8347 8.82293 3.23028L8.18481 3.86971C8.1064 3.94828 7.97932 3.94828 7.90091 3.86971L7.2628 3.23028C6.86803 2.8347 6.22722 2.8347 5.83245 3.23028L3.28271 5.78528C2.88794 6.18086 2.88794 6.823 3.28271 7.21857L3.92082 7.858C3.99923 7.93658 3.99923 8.06392 3.92082 8.14249L3.28271 8.78192C2.88794 9.1775 2.88794 9.81964 3.28271 10.2152L5.83245 12.7702C6.22722 13.1658 6.86803 13.1658 7.2628 12.7702L7.90091 12.1308C7.97932 12.0522 8.1064 12.0522 8.18481 12.1308L8.82293 12.7702C9.21769 13.1658 9.85851 13.1658 10.2533 12.7702L12.9734 10.0445C13.1734 9.84131 13.0301 9.49721 12.7462 9.49721Z" fill="#FF7826"></path>
</svg><style>@media (prefers-color-scheme: light) { :root { filter: none; } }
@media (prefers-color-scheme: dark) { :root { filter: none; } }
</style></svg>